<?xml version="1.0" standalone="no"?>
<!DOCTYPE svg PUBLIC "-//W3C//DTD SVG 20010904//EN"
 "http://www.w3.org/TR/2001/REC-SVG-20010904/DTD/svg10.dtd">
<svg version="1.0" xmlns="http://www.w3.org/2000/svg"
 width="620.000000pt" height="620.000000pt" viewBox="0 0 620.000000 620.000000"
 preserveAspectRatio="xMidYMid meet">
<metadata>
Created by potrace 1.11, written by Peter Selinger 2001-2013
</metadata>
<g transform="translate(0.000000,620.000000) scale(0.100000,-0.100000)"
fill="#000000" stroke="none">
<path d="M2830 6189 c-159 -17 -224 -26 -370 -55 -179 -36 -444 -121 -610
-196 -65 -30 -220 -106 -255 -126 -153 -87 -338 -211 -421 -281 -17 -14 -53
-44 -80 -66 -77 -62 -303 -291 -381 -385 -279 -339 -492 -748 -604 -1160 -7
-25 -14 -49 -15 -55 -10 -34 -54 -255 -59 -297 -4 -28 -8 -58 -10 -68 -12 -61
-20 -225 -20 -400 0 -243 8 -340 41 -530 8 -47 18 -98 20 -115 3 -16 19 -82
36 -145 101 -388 270 -736 517 -1070 30 -41 58 -77 61 -80 3 -3 27 -32 54 -65
85 -102 313 -325 420 -410 21 -16 47 -38 59 -48 11 -9 23 -17 26 -17 3 0 18
-11 32 -23 13 -13 29 -26 34 -28 6 -2 63 -39 127 -82 64 -42 120 -77 123 -77
4 0 20 -9 36 -21 16 -11 29 -17 29 -14 0 3 12 -2 27 -13 48 -34 275 -135 420
-186 111 -40 231 -74 348 -100 104 -23 132 -28 223 -42 20 -3 47 -7 58 -9 12
-2 61 -6 110 -10 49 -4 99 -8 112 -10 l22 -4 0 3098 0 3097 -22 0 c-13 0 -52
-4 -88 -7z m-240 -1674 l0 -1245 -1094 0 c-832 0 -1095 3 -1098 12 -2 6 -1 37
3 67 4 31 10 81 14 111 4 30 13 87 20 125 8 39 16 81 19 95 8 50 69 266 89
320 12 30 22 57 22 60 1 3 9 22 18 44 9 21 17 40 17 42 0 11 91 196 138 279
55 100 173 281 208 321 11 12 33 39 49 60 85 109 261 286 380 382 39 32 76 63
84 70 56 53 343 225 491 295 194 91 434 171 600 200 14 2 28 5 33 6 4 0 7
-559 7 -1244z m0 -2835 l0 -1239 -32 5 c-176 31 -433 118 -630 213 -162 78
-412 228 -469 283 -8 7 -48 40 -89 73 -221 176 -467 468 -622 740 -50 88 -158
310 -158 325 0 6 -4 18 -9 28 -14 24 -62 151 -66 172 -2 9 -12 48 -24 86 -22
77 -66 291 -75 369 -11 91 -18 150 -22 168 -3 16 55 17 1097 17 l1099 0 0
-1240z"/>
<path d="M3270 3099 l0 -3098 23 4 c12 2 57 6 101 9 43 4 88 8 100 11 11 2 41
7 66 10 93 11 249 44 380 81 647 180 1225 575 1641 1124 263 347 465 793 553
1220 26 127 29 149 41 255 4 33 8 71 11 85 2 14 7 87 10 163 l6 137 -196 0
-196 0 -1 -42 c-4 -178 -14 -281 -44 -438 -8 -41 -16 -86 -19 -100 -14 -82
-69 -270 -114 -385 -35 -91 -138 -306 -193 -403 -133 -236 -401 -552 -609
-717 -41 -33 -81 -65 -88 -72 -58 -55 -327 -217 -493 -296 -171 -82 -450 -176
-574 -194 -16 -2 -36 -6 -42 -8 -10 -4 -13 572 -13 2855 0 2717 -1 2860 -17
2861 -10 0 -25 2 -33 3 -26 5 -112 15 -180 22 -36 3 -77 7 -92 8 l-28 3 0
-3098z"/>
<path d="M3850 3100 c0 -1298 4 -2360 8 -2360 11 0 134 43 187 65 696 292
1213 864 1430 1582 20 64 38 131 41 150 l5 33 -200 0 -200 0 -11 -42 c-97
-372 -338 -746 -655 -1018 -87 -74 -211 -165 -241 -177 -12 -4 -14 110 -14
791 l0 796 695 0 695 0 0 175 0 175 -695 0 -695 0 0 805 0 804 63 -43 c317
-217 546 -479 712 -816 74 -148 160 -393 164 -467 1 -10 48 -13 201 -13 l201
0 -6 38 c-4 20 -18 80 -32 132 -13 52 -26 102 -28 110 -8 36 -70 200 -107 283
-166 380 -433 718 -763 969 -133 102 -260 179 -415 255 -116 57 -305 133 -330
133 -7 0 -10 -728 -10 -2360z"/>
</g>
</svg>
